<?xml version="1.0" encoding="UTF-8" standalone="no"?>
<svg
   version="1.1"
   width="51.389771"
   height="46.7925"
   viewBox="0 0 51.389771 46.792498"
   id="svg82"
   sodipodi:docname="hard_hat.svg"
   inkscape:version="1.1.2 (0a00cf5339, 2022-02-04)"
   inkscape:export-filename="hard_hat.svg"
   inkscape:export-xdpi="96"
   inkscape:export-ydpi="96"
   xmlns:inkscape="http://www.inkscape.org/namespaces/inkscape"
   xmlns:sodipodi="http://sodipodi.sourceforge.net/DTD/sodipodi-0.dtd"
   xmlns="http://www.w3.org/2000/svg"
   xmlns:svg="http://www.w3.org/2000/svg">
  <sodipodi:namedview
     id="namedview84"
     pagecolor="#505050"
     bordercolor="#ffffff"
     borderopacity="1"
     inkscape:pageshadow="0"
     inkscape:pageopacity="0"
     inkscape:pagecheckerboard="1"
     showgrid="false"
     inkscape:zoom="6.2687203"
     inkscape:cx="33.978227"
     inkscape:cy="28.873517"
     inkscape:window-width="2560"
     inkscape:window-height="1372"
     inkscape:window-x="0"
     inkscape:window-y="0"
     inkscape:window-maximized="1"
     inkscape:current-layer="g80"
     inkscape:showpageshadow="2"
     inkscape:deskcolor="#d1d1d1" />
  <defs
     id="defs32" />
  <g
     transform="translate(-109.09326,-87.100605)"
     id="g80">
    <g
       class=""
       transform="matrix(-0.11210928,0,0,0.11210928,164.54323,81.256899)"
       style="fill:#ededed;fill-opacity:1"
       id="g6">
      <path
         d="m 294.396,52.127 c -17.944,0.066 -35.777,1.834 -52.886,4.746 -86.727,14.76 -135.612,53.467 -161.99,107.824 31.215,-2.434 62.002,-5.024 91.966,-4.838 24.114,0.15 47.696,2.097 70.54,7.37 15.15,3.5 24.652,16.647 27.607,31.735 2.954,15.088 0.858,32.92 -5.055,51.553 l -0.287,0.904 -0.468,0.826 c -7.762,13.64 -24.263,24.498 -45.295,35.994 -21.032,11.497 -46.695,22.693 -72.27,32.428 -25.574,9.735 -51.012,17.98 -71.575,23.437 -7.254,1.925 -13.85,3.48 -19.735,4.657 2.275,31.13 6.562,63.38 12.008,95.98 140.118,-38.25 273.5,-79.888 403.51,-123.254 25.935,-44.457 29.927,-86.448 16.967,-126.734 C 465.04,125.15 426.533,87.707 382.218,68.587 354.522,56.637 324.305,52.017 294.398,52.127 Z M 130.184,179.205 c -9.06,0.51 -18.265,1.156 -27.532,1.836 L 59.31,329.386 c 3.384,-0.79 6.936,-1.663 10.754,-2.676 4.004,-1.063 8.27,-2.27 12.66,-3.554 10.022,-31.07 43.3,-131.415 47.46,-143.95 z m -46.7,3.262 c -10.868,0.826 -21.824,1.654 -32.908,2.37 -0.32,0.445 -0.714,0.947 -1.318,2.267 -1.58,3.45 -3.375,9.418 -4.912,16.724 -3.075,14.612 -5.37,34.727 -6.705,54.877 -1.333,20.15 -1.73,40.438 -1.193,55.582 0.268,7.572 0.79,13.905 1.442,17.96 0.048,0.306 0.078,0.312 0.13,0.59 0.46,-0.01 1.033,-0.044 1.546,-0.064 z M 224,183 c -15.596,0 -28.66,12.582 -28.66,28.152 0,15.57 13.064,28.155 28.66,28.155 15.596,0 28.66,-12.584 28.66,-28.155 C 252.66,195.582 239.596,183 224,183 Z m 0,18 c 6.12,0 10.66,4.567 10.66,10.152 0,5.586 -4.54,10.155 -10.66,10.155 -6.12,0 -10.66,-4.57 -10.66,-10.155 C 213.34,205.567 217.88,201 224,201 Z M 454.19,345.865 C 330.383,386.852 203.285,426.23 70.054,462.56 c 0.413,2.317 0.81,4.63 1.232,6.948 147.607,-26.65 255.974,-68.965 371.36,-109.164 4.118,-4.857 7.947,-9.68 11.546,-14.48 z"
         id="path4"
         style="fill:#ededed;fill-opacity:1"
         inkscape:connector-curvature="0" />
    </g>
  </g>
</svg>
