<?xml version="1.0" encoding="UTF-8" standalone="no"?>
<svg
   version="1.1"
   width="61.705875"
   height="39.557289"
   viewBox="0 0 61.705875 39.557288"
   id="svg82"
   sodipodi:docname="hard_hat.svg"
   inkscape:version="1.1.2 (0a00cf5339, 2022-02-04)"
   inkscape:export-filename="suroi-0.10.1\client\public\img\game\loot\m1_helmet.svg"
   inkscape:export-xdpi="96"
   inkscape:export-ydpi="96"
   xmlns:inkscape="http://www.inkscape.org/namespaces/inkscape"
   xmlns:sodipodi="http://sodipodi.sourceforge.net/DTD/sodipodi-0.dtd"
   xmlns="http://www.w3.org/2000/svg"
   xmlns:svg="http://www.w3.org/2000/svg">
  <sodipodi:namedview
     id="namedview84"
     pagecolor="#505050"
     bordercolor="#ffffff"
     borderopacity="1"
     inkscape:pageshadow="0"
     inkscape:pageopacity="0"
     inkscape:pagecheckerboard="1"
     showgrid="false"
     inkscape:zoom="6.2687203"
     inkscape:cx="33.978227"
     inkscape:cy="28.873517"
     inkscape:window-width="2560"
     inkscape:window-height="1372"
     inkscape:window-x="0"
     inkscape:window-y="0"
     inkscape:window-maximized="1"
     inkscape:current-layer="g80"
     inkscape:showpageshadow="2"
     inkscape:deskcolor="#d1d1d1" />
  <defs
     id="defs32" />
  <g
     transform="translate(-103.86484,-89.696643)"
     id="g80">
    <path
       d="m 104.22807,122.29627 c 0.77069,-0.86702 5.42045,-5.45029 5.80527,-9.02675 0.44136,-4.09844 1.00576,-12.82256 3.48693,-16.096398 3.19006,-4.210491 6.68327,-7.47648 21.61423,-7.47648 10.65711,0 16.07756,2.206816 19.65244,7.017314 2.14661,2.894253 3.94086,10.356064 4.33772,14.736194 0.6021,6.52725 6.57281,5.12096 6.444,7.01259 -0.12774,1.8665 -8.76077,2.33928 -20.45611,2.38221 -7.75396,0.0278 -13.5875,7.85711 -17.72469,8.23722 -12.34821,1.14084 -25.92891,-3.65919 -23.15979,-6.7859 z m 28.37186,-16.08541 a 2.1183342,2.1183342 0 1 0 -2.11781,-2.11834 2.1183342,2.1183342 0 0 0 2.11676,2.11834 z"
       fill="#fff"
       id="path1"
       style="fill:#e5e5e5;fill-opacity:1;stroke-width:0.523562" />
  </g>
</svg>
