<?xml version="1.0" encoding="UTF-8" standalone="no"?>
<svg
   version="1.1"
   width="61.876133"
   height="47.292"
   viewBox="0 0 61.876133 47.291998"
   id="svg82"
   sodipodi:docname="hard_hat.svg"
   inkscape:version="1.1.2 (0a00cf5339, 2022-02-04)"
   inkscape:export-filename="suroi-0.10.1\client\public\img\game\loot\tactical_helmet.svg"
   inkscape:export-xdpi="96"
   inkscape:export-ydpi="96"
   xmlns:inkscape="http://www.inkscape.org/namespaces/inkscape"
   xmlns:sodipodi="http://sodipodi.sourceforge.net/DTD/sodipodi-0.dtd"
   xmlns="http://www.w3.org/2000/svg"
   xmlns:svg="http://www.w3.org/2000/svg">
  <sodipodi:namedview
     id="namedview84"
     pagecolor="#505050"
     bordercolor="#ffffff"
     borderopacity="1"
     inkscape:pageshadow="0"
     inkscape:pageopacity="0"
     inkscape:pagecheckerboard="1"
     showgrid="false"
     inkscape:zoom="6.2687203"
     inkscape:cx="33.978227"
     inkscape:cy="28.873517"
     inkscape:window-width="2560"
     inkscape:window-height="1372"
     inkscape:window-x="0"
     inkscape:window-y="0"
     inkscape:window-maximized="1"
     inkscape:current-layer="g80"
     inkscape:showpageshadow="2"
     inkscape:deskcolor="#d1d1d1" />
  <defs
     id="defs32" />
  <g
     transform="translate(-103.99345,-87.28228)"
     id="g80">
    <g
       fill="#fff"
       id="g3"
       style="fill:#e6e6e6;fill-opacity:1"
       transform="matrix(0.55483384,0,0,0.55483384,99.422128,75.418711)">
      <path
         d="m 59.672,21.391 c -2.798,-0.049 -5.836,0.105 -9.133,0.503 -17.105,1.65 -37.005,15.377 -40.435,31.265 -6.259,27.35 5.243,49.565 5.243,49.565 12.007,2.038 36.232,1.746 54.096,-9.426 L 63.482,74.692 c 0,0 -8.124,3.785 -11.45,1.125 -4.63,-3.701 -6.661,-7.104 -5.397,-12.862 0.364,-1.66 1.447,-3.174 2.63,-3.679 C 61.21,54.18 85.076,46.871 91.418,41.22 c 0,0 -4.692,-19.357 -31.746,-19.829 z m -5.311,60.763 a 4.955,4.955 0 0 1 4.956,4.954 4.955,4.955 0 0 1 -4.956,4.956 4.955,4.955 0 0 1 -4.954,-4.956 4.955,4.955 0 0 1 4.954,-4.954 z m -25.026,2.428 2.629,9.214 -10.877,2.653 -2.633,-8.933 z"
         id="path1-0"
         style="fill:#e6e6e6;fill-opacity:1" />
      <path
         d="m 95.585,43.99 -41.67,16.132 c 0,0 -2.245,0.982 -3.164,2.714 -2.844,5.36 2.51,9.877 3.896,10.336 1.89,0.626 2.844,0.563 4.345,0.238 4.258,-0.922 5.822,-2.158 5.822,-2.158 l 11.251,33.928 c 0,0 0.775,1.86 3.582,1.35 2.83,-0.515 30.443,-10.045 38.646,-11.81 1.334,-0.286 1.468,-3.639 1.468,-3.639 l -4.22,-10.195 -30.145,10.706 -12.048,-31.583 25.387,-9.7 z m -37.78,18.385 a 4.048,4.048 0 0 1 4.048,4.048 4.048,4.048 0 0 1 -4.048,4.048 4.048,4.048 0 0 1 -4.048,-4.048 4.048,4.048 0 0 1 4.048,-4.048 z"
         id="path2"
         style="fill:#e6e6e6;fill-opacity:1" />
      <path
         d="M 106.237,50.551 77.107,61.76 86.91,87.538 117.2,77.175 Z m -2.512,5.26 7.938,19.273 -21.926,7.5 -7.096,-18.66 z"
         id="path3"
         style="fill:#e6e6e6;fill-opacity:1" />
    </g>
  </g>
</svg>
