<?xml version="1.0" encoding="UTF-8" standalone="no"?>
<svg
   version="1.1"
   width="165"
   height="165"
   viewBox="0 0 165 165"
   xml:space="preserve"
   id="svg218"
   sodipodi:docname="blueberry_bush.svg"
   inkscape:version="1.2.2 (b0a8486, 2022-12-01)"
   inkscape:export-filename="..\..\..\..\..\..\Desktop\blueberry_bush.svg"
   inkscape:export-xdpi="96"
   inkscape:export-ydpi="96"
   xmlns:inkscape="http://www.inkscape.org/namespaces/inkscape"
   xmlns:sodipodi="http://sodipodi.sourceforge.net/DTD/sodipodi-0.dtd"
   xmlns="http://www.w3.org/2000/svg"
   xmlns:svg="http://www.w3.org/2000/svg"><sodipodi:namedview
   id="namedview220"
   pagecolor="#505050"
   bordercolor="#eeeeee"
   borderopacity="1"
   inkscape:showpageshadow="0"
   inkscape:pageopacity="0"
   inkscape:pagecheckerboard="true"
   inkscape:deskcolor="#505050"
   showgrid="false"
   inkscape:zoom="3.0224012"
   inkscape:cx="66.834278"
   inkscape:cy="84.204573"
   inkscape:window-width="1390"
   inkscape:window-height="1015"
   inkscape:window-x="0"
   inkscape:window-y="25"
   inkscape:window-maximized="0"
   inkscape:current-layer="svg218"
   showguides="true"
   inkscape:pageshadow="0" />&#10;<desc
   id="desc181">Created with Fabric.js 5.3.0</desc>&#10;<defs
   id="defs183" />&#10;&#10;<path
   d="m 140.61493,133.33911 c -0.95335,1.06189 -7.96661,2.84118 -9.02852,3.76149 -1.06662,0.91559 -6.08352,9.20314 -7.25867,10.00546 -1.17045,0.79289 -6.782,-1.17989 -8.03742,-0.53331 -1.26011,0.64186 -6.11654,5.75786 -7.41442,6.27702 -1.3026,0.50972 -7.24452,1.06662 -8.6179,1.35923 -1.378124,0.29733 -7.150139,5.99855 -8.551847,6.18261 -1.401716,0.16047 -10.307515,-3.63405 -11.704506,-3.66237 -1.401704,-0.0187 -5.93719,0.87784 -7.315301,0.67961 -1.387564,-0.18878 -8.292258,-2.1238 -9.646784,-2.4636 -1.354504,-0.33037 -7.305876,0.78342 -8.622635,0.28316 -1.31202,-0.50027 -7.598476,-6.36668 -8.820841,-7.06517 -1.217651,-0.69377 -8.183706,-1.39225 -9.330568,-2.19459 -1.151561,-0.80234 -2.534399,-7.77311 -3.558539,-8.75478 -1.024148,-0.98638 -7.749522,-2.93557 -8.655684,-4.01162 -0.901433,-1.0855 -1.637671,-8.87277 -2.458883,-10.01491 -0.821204,-1.14685 -8.613192,-5.12073 -9.25032,-6.39972 -0.63243,-1.2837 -1.326201,-7.48522 -1.779282,-8.81613 -0.453081,-1.33563 -3.5255061,-8.330027 -3.8511554,-9.722297 -0.325659,-1.382815 2.5013676,-7.353059 2.3692096,-8.778361 -0.132139,-1.415875 -6.5601763,-6.85752 -6.5507323,-8.287547 0,-1.434744 3.6434845,-8.353616 3.8558637,-9.769483 0.2076619,-1.415866 -2.0954787,-10.099852 -1.7792635,-11.4874 0.316215,-1.382832 7.0557309,-5.002733 7.5371319,-6.357246 0.481395,-1.345074 -1.713203,-9.722287 -1.08551,-11.010727 0.627712,-1.283719 8.839742,-4.964974 9.642067,-6.121264 0.802326,-1.156293 2.14267,-8.400812 3.058265,-9.472153 0.910879,-1.066618 8.122364,-1.302597 9.203137,-2.218191 1.080784,-0.910876 2.883654,-11.213668 4.021072,-12.067908 1.142135,-0.849519 10.085692,1.953896 11.326937,1.27428 1.245963,-0.684336 5.946635,-7.6739979 7.239798,-8.188431 1.293153,-0.5191506 7.253969,2.3880964 8.613192,2.0577273 1.368664,-0.3303696 7.338906,-7.92885615 8.731187,-8.05628295 1.392271,-0.1179916 6.848069,5.80977355 8.245057,5.82865285 1.396989,0.014158 9.226743,-4.60628895 10.600137,-4.3891886 1.373381,0.2123792 5.172622,6.7395281 6.531844,7.0557368 1.363969,0.311491 10.604853,-4.2004044 11.912163,-3.709571 1.30733,0.4908333 4.14379,8.5565566 5.35672,9.2361736 1.21763,0.679616 8.34888,-0.769288 9.50988,0.02359 1.16575,0.792885 4.11075,10.227281 5.13488,11.185349 1.02415,0.958069 9.36833,2.317304 10.30753,3.360327 0.93448,1.038301 0.21238,7.324751 0.98168,8.4952 0.77399,1.179891 10.09511,3.96443 10.73226,5.23871 0.6324,1.264843 -2.20876,8.934123 -1.68488,10.241439 0.52386,1.307317 5.47468,8.070442 5.83337,9.453274 0.3634,1.382828 -1.03831,9.236173 -0.892,10.666197 0.14159,1.430028 3.23291,6.852797 3.26592,8.292262 0.0378,1.434747 -3.65293,8.28283 -3.85113,9.689256 -0.20296,1.401713 1.94916,8.646219 1.59519,10.024346 -0.34925,1.3781 -3.55381,6.2062 -4.07297,7.52769 -0.51915,1.32146 -1.71792,8.86333 -2.37395,10.12816 -0.66074,1.26484 -5.59739,4.92722 -6.35724,6.12126 -0.7551,1.18933 -2.1049,8.0374 -3.05354,9.09933 z"
   fill="#243c0c"
   id="path1"
   style="stroke-width:4.71955" /><path
   d="m 154.73584,97.121236 a 1.0713395,1.0713395 0 0 0 -0.64658,-0.505004 c -0.18878,-0.04712 -4.62516,-1.260122 -10.5435,-1.68016 a 47.285243,47.285243 0 0 0 -9.727,0.235989 c -3.75677,0.514418 -7.03215,1.557443 -9.74588,3.096032 a 14.059561,14.059561 0 0 0 -6.65459,8.547107 14.059561,14.059561 0 0 0 1.34037,10.74643 14.059561,14.059561 0 0 0 8.54241,6.65459 14.06428,14.06428 0 0 0 10.75113,-1.34038 c 2.71374,-1.53856 5.2859,-3.82283 7.64569,-6.78198 1.87365,-2.3409 3.61518,-5.11128 5.19152,-8.23564 2.66182,-5.30006 3.89835,-9.736447 3.95025,-9.920493 a 1.0713395,1.0713395 0 0 0 -0.10375,-0.816491 z m 0,0"
   fill="#9fb02b"
   id="path2"
   style="stroke-width:4.71955" /><path
   d="m 147.23173,111.51589 -10.54819,-2.90255 7.66926,-4.35613 a 1.0727363,1.0727363 0 0 0 -1.0619,-1.86424 l -7.66454,4.35616 2.90252,-10.548213 a 1.0716764,1.0716764 0 0 0 -2.06717,-0.566346 l -3.4736,12.610669 -5.88998,3.35088 3.93138,-14.286113 a 1.0716822,1.0716822 0 0 0 -2.06719,-0.566336 l -4.50244,16.348539 -5.29063,3.00636 a 1.0715647,1.0715647 0 1 0 1.05719,1.86421 l 5.29062,-3.00635 16.34854,4.50246 a 1.0722989,1.0722989 0 1 0 0.57107,-2.06716 l -14.28139,-3.93612 5.89473,-3.34617 12.61539,3.4736 a 1.0716721,1.0716721 0 1 0 0.56633,-2.06715 z"
   fill="#3d6400"
   id="path3"
   style="stroke-width:4.71955" /><path
   d="m 101.13111,150.21154 c 0.26429,0.10389 0.5569,0.0943 0.81648,-0.0187 a 59.560811,59.560811 0 0 0 9.21257,-5.40389 47.280524,47.280524 0 0 0 7.36252,-6.36667 c 2.56743,-2.78456 4.43637,-5.67292 5.5502,-8.58487 a 14.059561,14.059561 0 0 0 -0.29733,-10.82667 14.059561,14.059561 0 0 0 -7.86751,-7.44748 14.059561,14.059561 0 0 0 -10.82668,0.29734 14.06428,14.06428 0 0 0 -7.442725,7.86751 c -1.113815,2.91196 -1.651839,6.31476 -1.590477,10.09986 0.04721,2.99691 0.457798,6.24395 1.227058,9.65148 1.31205,5.78617 3.181004,9.99602 3.256504,10.17065 0.11801,0.25957 0.33038,0.46253 0.59939,0.56635 z m 0,0"
   fill="#6c8d15"
   id="path4"
   style="stroke-width:4.71955" /><path
   d="m 97.775501,134.33495 9.986579,-4.46472 -3.14794,8.23563 a 1.0719378,1.0719378 0 0 0 2.00108,0.7693 l 3.14796,-8.24035 4.46471,9.99131 a 1.0722086,1.0722086 0 0 0 1.95861,-0.87313 l -5.33783,-11.94992 2.42113,-6.3242 6.04106,13.52154 a 1.0731701,1.0731701 0 0 0 1.95859,-0.87785 l -6.91886,-15.48014 2.171,-5.68236 a 1.0719344,1.0719344 0 1 0 -2.00109,-0.76928 l -2.171,5.68707 -15.480135,6.91414 a 1.0722072,1.0722072 0 1 0 0.8731,1.95862 l 13.521535,-6.04104 -2.4117,6.32893 -11.949917,5.3331 a 1.0743702,1.0743702 0 1 0 0.873118,1.96335 z"
   fill="#3d6400"
   id="path5"
   style="stroke-width:4.71955" /><path
   d="m 156.21778,135.30717 a 1.0713395,1.0713395 0 0 0 0.0847,-0.81648 59.560811,59.560811 0 0 0 -4.18155,-9.83085 47.280524,47.280524 0 0 0 -5.37085,-8.11291 c -2.43056,-2.90252 -5.05464,-5.12543 -7.80616,-6.60739 a 14.059561,14.059561 0 0 0 -10.77473,-1.08549 14.059561,14.059561 0 0 0 -8.39138,6.84335 14.059561,14.059561 0 0 0 -1.09023,10.77476 14.06428,14.06428 0 0 0 6.84337,8.39136 c 2.7515,1.47721 6.05521,2.44474 9.81669,2.87422 2.97332,0.3398 6.2487,0.34453 9.73172,0.0141 a 59.57497,59.57497 0 0 0 10.50574,-1.92556 1.0713395,1.0713395 0 0 0 0.6324,-0.51915 z m 0,0"
   fill="#678714"
   id="path6"
   style="stroke-width:4.71955" /><path
   d="m 140.03913,136.60033 -3.14793,-10.47742 7.76366,4.17682 a 1.0727452,1.0727452 0 0 0 1.01943,-1.88782 l -7.76839,-4.17682 10.47741,-3.14795 a 1.0713629,1.0713629 0 0 0 -0.61354,-2.05299 l -12.53043,3.76619 -5.97022,-3.21401 14.18697,-4.26178 a 1.0713675,1.0713675 0 0 0 -0.61354,-2.053 l -16.24471,4.88002 -5.3567,-2.88366 a 1.0727452,1.0727452 0 1 0 -1.01942,1.88783 l 5.36141,2.87894 4.8753,16.24471 a 1.0713707,1.0713707 0 1 0 2.05301,-0.61354 l -4.25704,-14.1917 5.96553,3.2093 3.7662,12.53515 a 1.0713629,1.0713629 0 1 0 2.053,-0.61354 z"
   fill="#3d6400"
   id="path7"
   style="stroke-width:4.71955" /><circle
   cx="155.88547"
   cy="57.636913"
   transform="rotate(23.81)"
   fill="#a70000"
   stroke="#000000"
   stroke-width="2.49664"
   id="circle7"
   r="6.8999929" /><path
   d="m 96.439874,148.84757 a 1.0713395,1.0713395 0 0 0 0.02833,-0.8212 59.560811,59.560811 0 0 0 -4.780924,-9.54767 47.285243,47.285243 0 0 0 -5.861687,-7.76366 c -2.605195,-2.75151 -5.366124,-4.80451 -8.197868,-6.11183 a 14.059561,14.059561 0 0 0 -10.826666,-0.42476 c -3.539658,1.31205 -6.371402,3.92667 -7.947731,7.3578 a 14.059561,14.059561 0 0 0 -0.424767,10.82193 14.06428,14.06428 0 0 0 7.357804,7.95245 c 2.831724,1.30262 6.187335,2.06244 9.972422,2.25595 2.992197,0.15574 6.258132,-0.0473 9.712843,-0.58994 a 59.57497,59.57497 0 0 0 10.364152,-2.57215 1.0713395,1.0713395 0 0 0 0.604105,-0.55692 z m 0,0"
   fill="#9fb02b"
   id="path8"
   style="stroke-width:4.71955" /><path
   d="m 80.369791,151.14128 -3.794532,-10.26032 8.013801,3.6907 a 1.0727761,1.0727761 0 0 0 0.896718,-1.94916 l -8.009083,-3.69072 10.260315,-3.7898 a 1.071367,1.071367 0 0 0 -0.740983,-2.01052 l -12.275565,4.53077 -6.154296,-2.83173 13.894376,-5.13488 a 1.0713705,1.0713705 0 0 0 -0.740964,-2.01055 l -15.904914,5.87587 -5.531312,-2.54857 a 1.0727772,1.0727772 0 1 0 -0.896717,1.94918 l 5.526593,2.54856 5.875859,15.90491 a 1.0713629,1.0713629 0 1 0 2.010521,-0.74097 l -5.13015,-13.8991 6.154299,2.83647 4.530766,12.27082 a 1.0735862,1.0735862 0 1 0 2.015268,-0.74096 z"
   fill="#3d6400"
   id="path9"
   style="stroke-width:4.71955" /><path
   d="m 22.045493,136.2558 a 1.0713395,1.0713395 0 0 0 0.495563,0.6513 c 0.169896,0.0943 4.1532,2.40697 9.764762,4.33255 3.303683,1.13269 6.489389,1.89725 9.462707,2.2654 3.756755,0.46721 7.192605,0.30204 10.213125,-0.49556 a 14.059561,14.059561 0 0 0 8.622633,-6.55074 c 1.901968,-3.26595 2.42112,-7.07935 1.463059,-10.73227 a 14.059561,14.059561 0 0 0 -6.560187,-8.62264 14.06428,14.06428 0 0 0 -10.727556,-1.46308 c -3.020519,0.79291 -6.088228,2.34091 -9.132351,4.59687 -2.406968,1.77928 -4.804509,4.01162 -7.126518,6.62624 a 59.57497,59.57497 0 0 0 -6.361968,8.57544 1.0713395,1.0713395 0 0 0 -0.11326,0.81649 z m 0,0"
   fill="#6c8d15"
   id="path10"
   style="stroke-width:4.71955" /><path
   d="m 32.990145,124.26812 9.453273,5.51245 -8.528233,2.24178 a 1.0731835,1.0731835 0 0 0 0.542736,2.07661 l 8.528253,-2.24652 -5.512452,9.44857 a 1.0745391,1.0745391 0 0 0 1.854786,1.08549 l 6.593216,-11.30333 6.550752,-1.72736 -7.461611,12.79471 a 1.0725032,1.0725032 0 0 0 1.850061,1.0855 l 8.542404,-14.6495 5.894726,-1.54802 a 1.0737861,1.0737861 0 1 0 -0.547472,-2.07661 l -5.885293,1.54804 -14.644782,-8.54242 a 1.0725114,1.0725114 0 1 0 -1.085502,1.85007 l 12.799442,7.46635 -6.555459,1.72264 -11.303344,-6.59324 a 1.073352,1.073352 0 1 0 -1.080783,1.85479 z"
   fill="#3d6400"
   id="path11"
   style="stroke-width:4.71955" /><path
   d="m 67.862613,164.72418 a 1.0713395,1.0713395 0 0 0 0.580512,-0.58052 c 0.07552,-0.17462 1.840626,-4.42694 3.011074,-10.24142 0.693772,-3.43113 1.028864,-6.68764 1.00526,-9.67983 -0.0331,-3.78981 -0.646571,-7.17372 -1.831181,-10.0621 a 14.059561,14.059561 0 0 0 -7.631527,-7.68344 14.059561,14.059561 0 0 0 -10.831383,-0.0425 14.059561,14.059561 0 0 0 -7.688161,7.63153 14.059561,14.059561 0 0 0 -0.03766,10.83139 c 1.179882,2.88365 3.119628,5.72952 5.757851,8.448 2.081328,2.15213 4.606291,4.23344 7.504104,6.19205 a 59.57497,59.57497 0 0 0 9.340004,5.18209 1.0713395,1.0713395 0 0 0 0.821195,0 z m 0,0"
   fill="#678714"
   id="path12"
   style="stroke-width:4.71955" /><path
   d="m 54.539315,155.44553 4.223986,-10.09043 3.346178,8.16013 a 1.0713395,1.0713395 0 0 0 1.982208,-0.81176 l -3.346158,-8.16485 10.095138,4.22872 a 1.0736993,1.0736993 0 0 0 0.825911,-1.9822 l -12.067912,-5.04993 -2.572154,-6.26759 13.663117,5.7154 a 1.0724364,1.0724364 0 0 0 0.830648,-1.97749 l -15.645335,-6.54605 -2.307868,-5.6304 a 1.0713395,1.0713395 0 1 0 -1.982218,0.81175 l 2.307867,5.63514 -6.546015,15.64063 a 1.0715215,1.0715215 0 1 0 1.977492,0.82592 l 5.720104,-13.66312 2.567438,6.27229 -5.049938,12.06791 a 1.074614,1.074614 0 1 0 1.982229,0.83063 z"
   fill="#3d6400"
   id="path13"
   style="stroke-width:4.71955" /><circle
   cy="123.64137"
   cx="59.083218"
   transform="rotate(0.67200003)"
   fill="#bf0000"
   stroke="#000000"
   stroke-width="2.49664"
   id="circle13"
   r="6.8999925" /><path
   d="m 34.726945,126.03323 a 1.0713395,1.0713395 0 0 0 0.726802,-0.38701 59.560811,59.560811 0 0 0 5.833384,-8.94354 c 1.651842,-3.08188 2.911965,-6.10711 3.752038,-8.98133 1.057188,-3.63406 1.44419,-7.05572 1.142136,-10.161197 A 14.059561,14.059561 0 0 0 41.084187,88.00304 14.059561,14.059561 0 0 0 30.729489,84.840942 14.059561,14.059561 0 0 0 21.167653,89.938066 14.06428,14.06428 0 0 0 18.010269,100.29749 c 0.302054,3.10547 1.335628,6.38557 3.077154,9.75062 1.37811,2.66182 3.19514,5.3803 5.408615,8.08931 a 59.57497,59.57497 0 0 0 7.447449,7.65511 1.0713395,1.0713395 0 0 0 0.783458,0.236 z m 0,0"
   fill="#9fb02b"
   id="path14"
   style="stroke-width:4.71955" /><path
   d="m 24.641242,113.3093 6.951914,-8.44799 0.854234,8.77837 a 1.0716645,1.0716645 0 0 0 2.133246,-0.20765 l -0.849517,-8.77839 8.448003,6.95663 a 1.0714172,1.0714172 0 0 0 1.359232,-1.65656 L 33.4385,101.63783 32.777767,94.888871 44.217974,104.30441 a 1.0713395,1.0713395 0 0 0 1.363951,-1.65185 L 32.485157,91.87308 31.899928,85.81789 a 1.0716645,1.0716645 0 1 0 -2.133245,0.207662 l 0.585229,6.055192 -10.774748,13.096776 a 1.0714201,1.0714201 0 1 0 1.656568,1.35922 l 9.410789,-11.435481 0.660744,6.744251 -8.315864,10.09986 a 1.0725981,1.0725981 0 1 0 1.651841,1.36867 z"
   fill="#3d6400"
   id="path15"
   style="stroke-width:4.71955" /><path
   d="m 8.0944816,55.438102 a 1.0713395,1.0713395 0 0 0 -0.3114971,0.75513 c 0,0.19822 0.014074,4.799787 1.1798917,10.619003 0.684348,3.426397 1.6329738,6.560182 2.8128558,9.311685 1.496097,3.483032 3.369774,6.366683 5.578513,8.570716 2.671282,2.67127 6.229819,4.143775 10.005462,4.143775 3.780369,0 7.334198,-1.477228 10.005462,-4.153213 2.671274,-2.671271 4.143785,-6.225097 4.143785,-10.005463 0,-3.775645 -1.477239,-7.329471 -4.15322,-10.00546 -2.20403,-2.204034 -5.087683,-4.077698 -8.570716,-5.569078 -2.751494,-1.17989 -5.89001,-2.1238 -9.316407,-2.808136 A 59.57497,59.57497 0 0 0 8.8496152,55.121891 1.0713395,1.0713395 0 0 0 8.0944816,55.438102 Z m 0,0"
   fill="#6c8d15"
   id="path16"
   style="stroke-width:4.71955" /><path
   d="M 23.966347,58.84562 V 69.785555 L 17.736538,63.55574 a 1.0729218,1.0729218 0 0 0 -1.519692,1.514977 l 6.239243,6.229816 -10.939926,0.0048 a 1.0736993,1.0736993 0 0 0 0,2.147398 l 13.082615,-0.0048 4.795064,4.79035 -14.814688,0.0048 a 1.0713395,1.0713395 0 0 0 0,2.142677 l 16.957358,-0.0048 4.304246,4.304236 a 1.0745892,1.0745892 0 1 0 1.519694,-1.519697 L 33.051498,78.865979 V 61.908614 a 1.0736993,1.0736993 0 1 0 -2.147396,0 l 0.0048,14.814689 -4.795065,-4.790351 v -13.09205 a 1.0737031,1.0737031 0 1 0 -2.147406,0 z"
   fill="#3d6400"
   id="path17"
   style="stroke-width:4.71955" /><path
   d="m 0.66092751,111.24363 a 1.0713395,1.0713395 0 0 0 0.71264119,0.40589 c 0.1887933,0.0283 4.7620344,0.59938 10.6803653,0.18878 3.48775,-0.24069 6.71592,-0.77872 9.594866,-1.5952 3.648202,-1.03831 6.74896,-2.5297 9.217279,-4.43637 A 14.059561,14.059561 0 0 0 36.255817,96.414797 14.059561,14.059561 0 0 0 33.424092,85.960973 14.059561,14.059561 0 0 0 24.027455,80.57124 14.06428,14.06428 0 0 0 13.573617,83.402972 c -2.473035,1.906701 -4.700671,4.530781 -6.6262444,7.787266 a 47.289963,47.289963 0 0 0 -3.978597,8.882212 59.57497,59.57497 0 0 0 -2.52023688,10.3783 c -0.0376593,0.28318 0.0377574,0.56636 0.21238879,0.79288 z m 0,0"
   fill="#678714"
   id="path18"
   style="stroke-width:4.71955" /><path
   d="M 6.0742509,95.938119 16.92924,97.335114 9.9442949,102.72483 a 1.0733358,1.0733358 0 0 0 1.3120321,1.69905 l 6.980227,-5.389737 -1.396989,10.850257 a 1.0713395,1.0713395 0 0 0 2.123791,0.27375 l 1.675457,-12.97879 5.361406,-4.139053 -1.887818,14.691983 a 1.0713395,1.0713395 0 0 0 2.123802,0.27375 L 28.402476,91.185524 33.21643,87.466508 A 1.071895,1.071895 0 1 0 31.909107,85.76747 l -4.813945,3.723733 -16.82051,-2.170993 a 1.0730248,1.0730248 0 1 0 -0.273732,2.128515 l 14.691984,1.892547 -5.366132,4.143771 -12.9787799,-1.670732 a 1.0713395,1.0713395 0 1 0 -0.2737412,2.123808 z"
   fill="#3d6400"
   id="path19"
   style="stroke-width:4.71955" /><circle
   cy="17.397966"
   cx="87.458687"
   transform="rotate(60.393)"
   fill="#e30000"
   stroke="#000000"
   stroke-width="2.49664"
   id="circle19"
   r="6.8999929" /><path
   d="m 18.23682,48.42012 a 1.0713395,1.0713395 0 0 0 0.627682,0.533308 c 0.188785,0.05665 4.577969,1.439466 10.477421,2.095484 3.468883,0.387005 6.74897,0.43892 9.722289,0.151026 3.775642,-0.368124 7.08878,-1.278999 9.86387,-2.713744 A 14.059561,14.059561 0 0 0 55.913025,40.212808 14.059561,14.059561 0 0 0 54.99745,29.419183 14.059561,14.059561 0 0 0 46.719334,22.43424 14.06428,14.06428 0 0 0 35.930424,23.345113 c -2.770373,1.434744 -5.436919,3.615182 -7.914693,6.479951 -1.958622,2.265388 -3.808681,4.964975 -5.502996,8.023247 a 59.57497,59.57497 0 0 0 -4.342003,9.755325 1.0713395,1.0713395 0 0 0 0.07076,0.816484 z m 0,0"
   fill="#9fb02b"
   id="path20"
   style="stroke-width:4.71955" /><path
   d="m 26.307255,34.336961 10.425494,3.317849 -7.834461,4.049381 a 1.0733682,1.0733682 0 0 0 0.986393,1.9067 l 7.83447,-4.049381 -3.322572,10.425504 a 1.0717084,1.0717084 0 0 0 2.04356,0.646576 L 40.409292,38.169242 46.43144,35.054333 41.93842,49.16581 a 1.0731473,1.0731473 0 0 0 2.04358,0.656018 l 5.144309,-16.159763 5.40389,-2.793979 a 1.0733673,1.0733673 0 1 0 -0.986382,-1.906699 l -5.4039,2.798696 -16.159759,-5.144316 a 1.0713395,1.0713395 0 1 0 -0.646581,2.038848 l 14.111481,4.497737 -6.01744,3.11019 -12.469074,-3.969149 a 1.0724228,1.0724228 0 1 0 -0.651289,2.043568 z"
   fill="#3d6400"
   id="path21"
   style="stroke-width:4.71955" /><path
   d="m 72.828682,0.21627727 a 1.0713395,1.0713395 0 0 0 -0.821192,-0.00953 c -0.179361,0.070792 -4.450557,1.79343003 -9.420244,5.03576683 -2.926126,1.9114202 -5.484121,3.9549889 -7.598487,6.0693509 -2.680708,2.680707 -4.662916,5.493564 -5.89001,8.363055 a 14.059561,14.059561 0 0 0 -0.132147,10.831401 14.059561,14.059561 0 0 0 7.565455,7.749511 14.059561,14.059561 0 0 0 10.831375,0.127428 14.06428,14.06428 0 0 0 7.749522,-7.56545 c 1.227074,-2.864766 1.897261,-6.23925 1.986926,-10.029053 A 47.271084,47.271084 0 0 0 76.250364,11.094788 59.57497,59.57497 0 0 0 73.399751,0.80615357 1.0713395,1.0713395 0 0 0 72.828682,0.21620887 Z m 0,0"
   fill="#6c8d15"
   id="path22"
   style="stroke-width:4.71955" /><path
   d="m 75.551863,16.215575 -10.15648,4.068258 3.473589,-8.103479 A 1.073956,1.073956 0 0 0 66.8962,11.330834 l -3.468883,8.1082 -4.068253,-10.1564871 a 1.0713395,1.0713395 0 0 0 -1.986933,0.7976041 l 4.861142,12.148142 -2.671264,6.229815 -5.503007,-13.75279 a 1.0727134,1.0727134 0 0 0 -1.991652,0.797605 l 6.300606,15.739722 -2.397532,5.597395 a 1.0720984,1.0720984 0 1 0 1.972774,0.840082 l 2.397532,-5.592675 15.739727,-6.300609 a 1.0713395,1.0713395 0 1 0 -0.792891,-1.986935 l -13.752792,5.503004 2.666567,-6.229814 12.148122,-4.861144 a 1.072714,1.072714 0 1 0 -0.7976,-1.991654 z"
   fill="#3d6400"
   id="path23"
   style="stroke-width:4.71955" /><path
   d="m 18.265122,10.210585 a 1.0713395,1.0713395 0 0 0 -0.11326,0.811764 c 0.04717,0.188782 1.208216,4.644044 3.789824,9.986581 1.519684,3.147945 3.218725,5.946643 5.049917,8.315863 2.312584,3.001638 4.846982,5.328379 7.532417,6.914148 3.256492,1.920862 7.065174,2.454171 10.72283,1.51026 3.662383,-0.939192 6.734808,-3.251775 8.655675,-6.50827 1.920846,-3.256495 2.463602,-7.060458 1.519683,-10.722832 A 14.06428,14.06428 0 0 0 48.909233,11.862431 C 46.219082,10.276659 42.962579,9.1817224 39.215258,8.6059364 a 47.289963,47.289963 0 0 0 -9.722287,-0.396444 c -5.923049,0.320931 -10.38303,1.463063 -10.571814,1.510258 a 1.0713395,1.0713395 0 0 0 -0.656025,0.4908346 z m 0,0"
   fill="#678714"
   id="path24"
   style="stroke-width:4.71955" /><path
   d="m 34.486244,9.5545664 2.732634,10.5954056 -7.598495,-4.483579 a 1.0725032,1.0725032 0 0 0 -1.085491,1.850067 l 7.593769,4.483578 -10.595409,2.727904 a 1.0719967,1.0719967 0 0 0 0.533302,2.076606 l 12.672009,-3.265935 5.838101,3.445278 -14.347456,3.695411 a 1.0725874,1.0725874 0 0 0 0.538028,2.076608 l 16.419338,-4.233444 5.238702,3.09131 a 1.0713395,1.0713395 0 1 0 1.090218,-1.840628 l -5.2387,-3.096028 -4.233451,-16.424059 a 1.0725861,1.0725861 0 1 0 -2.0766,0.53803 L 45.666873,25.138544 39.82878,21.693268 36.562855,9.0212564 a 1.0719996,1.0719996 0 1 0 -2.076611,0.53331 z"
   fill="#3d6400"
   id="path25"
   style="stroke-width:4.71955" /><circle
   transform="rotate(-153.926)"
   cy="-6.6427121"
   cx="-60.598309"
   fill="#a70000"
   stroke="#000000"
   stroke-width="2.49664"
   id="circle25"
   r="6.8999929" /><path
   d="m 68.608641,11.201693 a 1.0713395,1.0713395 0 0 0 -0.108515,0.816482 c 0.04718,0.188781 1.236528,4.634604 3.846449,9.958267 1.538572,3.143225 3.256483,5.932482 5.097119,8.292261 2.331472,2.982761 4.884738,5.295343 7.579608,6.862237 3.265926,1.901981 7.079325,2.421132 10.732276,1.453621 a 14.059561,14.059561 0 0 0 8.617892,-6.560183 c 1.90197,-3.270654 2.41643,-7.079337 1.44893,-10.736993 a 14.06428,14.06428 0 0 0 -6.560194,-8.61319 C 96.567344,11.102581 93.296676,10.026522 89.54936,9.4743344 A 47.280524,47.280524 0 0 0 79.827064,9.1345264 59.57497,59.57497 0 0 0 69.259977,10.70614 1.0713395,1.0713395 0 0 0 68.608679,11.201693 Z m 0,0"
   fill="#9fb02b"
   id="path26"
   style="stroke-width:4.71955" /><path
   d="M 84.829761,10.451282 87.619022,21.02781 79.99693,16.591427 a 1.0721629,1.0721629 0 0 0 -1.076056,1.854787 l 7.617375,4.436383 -10.571814,2.793977 a 1.0731804,1.0731804 0 0 0 0.542744,2.076603 l 12.648425,-3.346165 5.861686,3.412241 -14.32387,3.780364 a 1.0737821,1.0737821 0 0 0 0.547482,2.076606 l 16.395733,-4.332553 5.257585,3.058273 a 1.0713395,1.0713395 0 1 0 1.08078,-1.850069 l -5.262304,-3.06299 -4.327828,-16.395742 a 1.0737858,1.0737858 0 1 0 -2.076616,0.547469 l 3.785096,14.323856 -5.852254,-3.40752 -3.346167,-12.6531326 a 1.0715014,1.0715014 0 1 0 -2.071891,0.5474676 z"
   fill="#3d6400"
   id="path27"
   style="stroke-width:4.71955" /><path
   d="m 141.46444,30.83505 a 1.0713395,1.0713395 0 0 0 -0.43419,-0.693776 59.560811,59.560811 0 0 0 -9.30695,-5.248147 47.280524,47.280524 0 0 0 -9.20316,-3.157383 c -3.69541,-0.821202 -7.13125,-0.981667 -10.21312,-0.481395 a 14.059561,14.059561 0 0 0 -9.20786,5.701224 14.059561,14.059561 0 0 0 -2.47777,10.543492 c 0.60883,3.72845 2.63352,7.003824 5.70124,9.207855 a 14.06428,14.06428 0 0 0 10.54348,2.482488 c 3.07715,-0.504993 6.28645,-1.746237 9.53351,-3.704854 2.5627,-1.543293 5.15847,-3.539666 7.71647,-5.918324 a 59.57497,59.57497 0 0 0 7.15486,-7.928856 1.0713395,1.0713395 0 0 0 0.18877,-0.802324 z m 0,0"
   fill="#6c8d15"
   id="path28"
   style="stroke-width:4.71955" /><path
   d="m 129.42014,41.727788 -8.88221,-6.390281 8.70286,-1.420587 a 1.0734534,1.0734534 0 0 0 -0.34452,-2.119081 l -8.70287,1.420588 6.39028,-8.877487 a 1.0734191,1.0734191 0 0 0 -1.74151,-1.255403 l -7.63625,10.619004 -6.68762,1.094937 8.65095,-12.025431 a 1.0720409,1.0720409 0 0 0 -1.74151,-1.250683 l -9.90162,13.762227 -6.008,0.98167 a 1.0713395,1.0713395 0 1 0 0.34453,2.11436 l 6.00797,-0.976948 13.76225,9.90163 a 1.0734191,1.0734191 0 1 0 1.25539,-1.741516 l -12.02543,-8.650948 6.68763,-1.085497 10.61899,7.636243 a 1.0715089,1.0715089 0 1 0 1.2554,-1.736797 z"
   fill="#3d6400"
   id="path29"
   style="stroke-width:4.71955" /><path
   d="m 100.7841,0.06568735 a 1.0713395,1.0713395 0 0 0 -0.74569,0.3398084 C 99.90626,0.54708195 96.767766,3.916846 93.643415,8.9620535 91.802777,11.935374 90.35389,14.866218 89.334457,17.683794 c -1.288434,3.563265 -1.887824,6.951908 -1.783989,10.066815 0.122742,3.775647 1.713194,7.282276 4.474132,9.863875 a 14.059561,14.059561 0 0 0 10.1376,3.808681 14.059561,14.059561 0 0 0 9.86387,-4.474141 14.06428,14.06428 0 0 0 3.8087,-10.137607 C 115.73099,23.69179 114.905,20.350343 113.38059,16.88147 a 47.289963,47.289963 0 0 0 -4.88003,-8.4149717 59.57497,59.57497 0 0 0 -6.94718,-8.11291945 1.0713395,1.0713395 0 0 0 -0.76928,-0.2831715 z m 0,0"
   fill="#678714"
   id="path30"
   style="stroke-width:4.71955" /><path
   d="m 110.04386,13.403155 -7.47578,7.99021 -0.2926,-8.816131 a 1.0719287,1.0719287 0 0 0 -2.14268,0.07079 l 0.2926,8.816132 -7.990193,-7.475778 a 1.0718818,1.0718818 0 0 0 -1.463069,1.566891 l 9.552392,8.938842 0.22653,6.772565 -10.817222,-10.118732 a 1.0718799,1.0718799 0 0 0 -1.463058,1.566893 l 12.38411,11.581794 0.20293,6.083511 a 1.0719244,1.0719244 0 1 0 2.14268,-0.07078 l -0.20294,-6.088238 11.57706,-12.379397 a 1.0718799,1.0718799 0 1 0 -1.56688,-1.463063 l -10.11874,10.817224 -0.22653,-6.772563 8.93884,-9.557104 a 1.0713395,1.0713395 0 1 0 -1.56217,-1.463063 z"
   fill="#3d6400"
   id="path31"
   style="stroke-width:4.71955" /><path
   d="m 132.70496,27.42281 a 1.0713395,1.0713395 0 0 0 -0.7646,0.302051 c -0.14157,0.136866 -3.43109,3.350886 -6.79614,8.240346 -1.98221,2.878931 -3.57272,5.743702 -4.71956,8.509363 -1.46307,3.492472 -2.22291,6.848076 -2.27012,9.967705 -0.0565,3.780364 1.36398,7.353068 3.99747,10.066814 a 14.059561,14.059561 0 0 0 9.94412,4.294798 c 3.77564,0.04721 7.35307,-1.368672 10.06681,-4.002184 a 14.06428,14.06428 0 0 0 4.29008,-9.944107 c 0.0472,-3.114908 -0.61828,-6.494112 -1.97279,-10.033779 a 47.280524,47.280524 0 0 0 -4.47411,-8.636791 59.57497,59.57497 0 0 0 -6.55077,-8.438566 1.0713395,1.0713395 0 0 0 -0.75512,-0.32565 z m 0,0"
   fill="#9fb02b"
   id="path32"
   style="stroke-width:4.71955" /><path
   d="m 141.30871,41.189757 -7.84862,7.622086 0.13214,-8.820853 a 1.0737964,1.0737964 0 0 0 -2.1474,-0.02833 l -0.12743,8.816133 -7.62208,-7.848626 a 1.0713853,1.0713853 0 0 0 -1.53858,1.491381 l 9.11818,9.391919 -0.10376,6.772564 -10.31697,-10.628438 a 1.0730248,1.0730248 0 0 0 -1.53856,1.496098 l 11.81305,12.1623 -0.0896,6.088229 a 1.0714331,1.0714331 0 1 0 2.14267,0.02832 l 0.0943,-6.0835 12.16229,-11.813052 a 1.0730248,1.0730248 0 1 0 -1.49609,-1.538574 l -10.62372,10.32167 0.0944,-6.777285 9.39192,-9.118184 a 1.0713395,1.0713395 0 1 0 -1.4961,-1.533856 z"
   fill="#3d6400"
   id="path33"
   style="stroke-width:4.71955" /><path
   d="m 151.31417,100.54291 a 1.0713395,1.0713395 0 0 0 0.39643,-0.717377 c 0.0236,-0.1935 0.51915,-4.766753 0.0103,-10.68035 -0.30205,-3.483038 -0.89672,-6.701777 -1.7604,-9.571267 -1.09965,-3.624619 -2.64295,-6.70177 -4.58743,-9.137063 a 14.059561,14.059561 0 0 0 -9.48628,-5.229269 14.059561,14.059561 0 0 0 -10.40663,3.006358 14.059561,14.059561 0 0 0 -5.22929,9.486311 14.06428,14.06428 0 0 0 3.01109,10.40662 c 1.9492,2.435298 4.60629,4.620444 7.90053,6.489387 2.60521,1.477218 5.61628,2.765686 8.9483,3.822853 5.6493,1.807597 10.22254,2.331457 10.41605,2.350317 0.28318,0.0331 0.56636,-0.0471 0.78819,-0.22652 z m 0,0"
   fill="#6c8d15"
   id="path34"
   style="stroke-width:4.71955" /><path
   d="m 135.91897,95.389148 1.21763,-10.873856 5.50302,6.890554 a 1.072813,1.072813 0 0 0 1.67545,-1.340358 l -5.50301,-6.890549 10.86913,1.217646 a 1.0731269,1.0731269 0 0 0 0.23599,-2.13324 l -13.00239,-1.448904 -4.22872,-5.295343 14.72502,1.642405 a 1.0713395,1.0713395 0 0 0 0.23596,-2.128521 l -16.85352,-1.883104 -3.79925,-4.752594 a 1.071342,1.071342 0 1 0 -1.67546,1.335638 l 3.79927,4.757312 -1.8831,16.84882 a 1.0731262,1.0731262 0 1 0 2.13322,0.235978 l 1.64242,-14.7203 4.23343,5.295345 -1.45363,13.007093 a 1.0713395,1.0713395 0 1 0 2.12854,0.235978 z"
   fill="#3d6400"
   id="path35"
   style="stroke-width:4.71955" /><path
   d="m 164.88539,46.403868 a 1.0713395,1.0713395 0 0 0 -0.66074,-0.486116 59.560811,59.560811 0 0 0 -10.59541,-1.378109 47.289963,47.289963 0 0 0 -9.71285,0.51915 c -3.73788,0.627701 -6.98493,1.765114 -9.65148,3.383923 a 14.059561,14.059561 0 0 0 -6.39973,8.735899 14.059561,14.059561 0 0 0 1.65185,10.703958 14.059561,14.059561 0 0 0 8.73588,6.404439 14.06428,14.06428 0 0 0 10.70397,-1.651846 c 2.66655,-1.623528 5.17262,-3.978587 7.44746,-7.008544 a 47.289963,47.289963 0 0 0 4.94138,-8.381933 c 2.51078,-5.375577 3.6199,-9.844994 3.66238,-10.033776 a 1.0713395,1.0713395 0 0 0 -0.12274,-0.807045 z m 0,0"
   fill="#678714"
   id="path36"
   style="stroke-width:4.71955" /><path
   d="m 157.80134,61.010896 -10.62845,-2.595757 7.53713,-4.577971 a 1.0736794,1.0736794 0 0 0 -1.11382,-1.835906 l -7.53713,4.577971 2.59576,-10.628443 a 1.0713395,1.0713395 0 0 0 -2.07661,-0.504993 l -3.11019,12.709768 -5.79089,3.516068 3.51607,-14.389927 a 1.0731523,1.0731523 0 0 0 -2.08605,-0.504994 l -4.02105,16.471255 -5.20096,3.162104 a 1.0713395,1.0713395 0 1 0 1.1091,1.826466 l 5.20566,-3.157383 16.47126,4.025783 a 1.0737075,1.0737075 0 1 0 0.5097,-2.086043 l -14.39464,-3.51135 5.79562,-3.520793 12.70978,3.10547 a 1.0714155,1.0714155 0 1 0 0.50971,-2.081325 z"
   fill="#3d6400"
   id="path37"
   style="stroke-width:4.71955" /><circle
   transform="rotate(-35.746999)"
   cy="133.23927"
   cx="67.381546"
   fill="#a70000"
   stroke="#000000"
   stroke-width="2.49664"
   id="circle37"
   r="6.8999929" /><path
   d="m 100.57892,98.570123 c -0.896714,0.95336 -6.182618,0.58524 -7.268108,1.31677 -1.071348,0.726807 0.443635,3.209287 -0.679621,3.728457 -1.118539,0.51914 -5.007451,0.0103 -6.229818,0.37756 -1.208205,0.35868 -3.756765,2.78453 -5.021606,2.86949 -1.264839,0.0708 -2.425854,-2.0058 -3.685977,-2.06716 -1.260114,-0.0661 -5.696508,2.33144 -6.918866,1.89725 -1.227092,-0.42949 -0.788163,-4.45525 -1.873673,-5.08768 -1.085501,-0.62771 -6.810313,0.22654 -7.674,-0.66074 -0.863668,-0.89671 1.415866,-3.728443 0.59939,-4.752598 -0.816488,-1.028856 -5.639865,-2.614633 -6.258133,-3.690685 -0.622986,-1.076064 0.188784,-4.091856 -0.09444,-5.361421 -0.283166,-1.274279 -1.637691,-4.294797 -1.812313,-5.54076 -0.17934,-1.241243 3.08187,-2.562719 3.275371,-3.851159 0.188784,-1.293158 -1.661277,-4.049379 -1.142127,-5.262305 0.514434,-1.212926 1.98221,-3.785086 2.614629,-4.851705 0.637138,-1.071339 1.486663,-4.644046 2.279555,-5.616273 0.792883,-0.962791 3.086587,0.165184 4.058809,-0.589945 0.976948,-0.755129 3.006366,-4.299515 4.106019,-4.960255 1.113824,-0.660739 4.828113,-0.943911 6.059904,-1.156291 1.227083,-0.212379 0.778731,-1.840627 1.996379,-2.010531 1.21764,-0.165184 5.48411,3.454716 6.715921,3.742608 1.227093,0.283174 4.44583,-2.860052 5.644601,-2.440011 1.203488,0.424761 1.996379,4.16265 3.09603,4.743155 1.10438,0.580508 3.634049,-1.529136 4.644042,-0.72681 1.009975,0.802323 1.632968,5.139595 2.430578,6.135423 0.802314,1.005265 2.770374,3.383923 3.228164,4.559092 0.4578,1.17517 -0.44837,3.020518 -0.0803,4.219285 0.37287,1.198767 5.02635,4.233444 5.0169,5.53604 -0.0103,1.307318 -3.02052,4.025782 -3.10075,5.281184 -0.0848,1.255404 1.63769,4.039946 1.14215,5.257585 -0.49557,1.222363 -5.3803,2.284264 -5.993844,3.43112 -0.61355,1.146844 1.817014,4.577981 0.925014,5.53131 z"
   fill="#80a460"
   fill-opacity="0.784"
   id="path38"
   style="stroke-width:4.71955" /><circle
   transform="rotate(-46.914)"
   cx="-49.116249"
   cy="138.35696"
   fill="#e30000"
   stroke="#000000"
   stroke-width="2.49664"
   id="circle38"
   r="6.8999929" /><circle
   transform="rotate(-20.924)"
   cx="78.342133"
   cy="64.557457"
   fill="#bf0000"
   stroke="#000000"
   stroke-width="2.49664"
   id="circle39"
   r="6.8999929" /><circle
   cx="90.661507"
   cy="-68.824234"
   transform="rotate(56.547)"
   fill="#a70000"
   stroke="#000000"
   stroke-width="2.49664"
   id="circle40"
   r="6.8999929" /><path
   d="m 133.62998,91.122675 c -0.56636,2.543844 -9.30696,6.621537 -10.39718,8.981305 -1.0855,2.35508 3.28954,6.62155 1.86894,8.68399 -1.42531,2.05774 -8.83501,4.04467 -10.60486,5.88058 -1.76983,1.82645 -3.1149,8.93884 -5.23869,10.33582 -2.12381,1.397 -7.23036,-1.24596 -9.524074,-0.15576 -2.293709,1.08553 -6.824479,9.20315 -9.368307,9.67041 -2.54857,0.47193 -6.560196,-6.33366 -9.08515,-6.34782 -2.534407,-0.0142 -10.430221,6.59321 -12.856085,5.95608 -2.435279,-0.63243 -2.671264,-7.83447 -5.097118,-8.82557 -2.416411,-0.99111 -11.444916,1.34036 -13.592321,0.0187 -2.156831,-1.32148 -3.24705,-7.94302 -5.026323,-9.84028 -1.779284,-1.89727 -7.928863,-4.55908 -9.439121,-6.6074 -1.51026,-2.03884 2.350351,-8.12707 1.387545,-10.552907 -0.967504,-2.425856 -7.315313,-5.427495 -7.692878,-8.023256 -0.382274,-2.59576 1.396989,-8.363056 1.415877,-10.888018 0.02358,-2.520243 -3.176262,-9.099307 -2.737353,-11.591233 0.438929,-2.501366 6.210941,-3.681254 7.159577,-5.998557 0.953342,-2.322022 -0.0331,-10.194243 1.288434,-12.412435 1.31676,-2.208754 7.990217,-5.002729 9.878032,-6.668736 1.887827,-1.670721 0.283176,-5.833371 2.298423,-7.305872 2.01054,-1.477222 11.751698,0.873116 14.158672,0.06607 2.416412,-0.807044 5.026333,-8.967159 7.537136,-9.439116 2.501367,-0.471955 7.749513,5.177355 10.269759,5.125441 2.515519,-0.04721 5.866404,-5.97968 8.400812,-5.545482 2.548559,0.438921 7.164284,7.447461 9.54766,8.410252 2.378663,0.96751 8.627353,1.472503 10.656763,3.020516 2.0294,1.538576 2.2182,6.866955 4.05881,8.627353 1.83119,1.755673 11.82251,2.21819 13.15341,4.459979 1.33563,2.237071 -1.29788,9.778924 -0.23598,12.091506 1.07133,2.312583 7.29171,5.427491 7.69289,8.018528 0.41532,2.591037 -6.3431,8.896365 -6.28646,11.501561 0.0519,2.595756 6.96608,6.810323 6.40444,9.354167 z"
   fill="#3b5b1f"
   fill-opacity="0.784"
   id="path40"
   style="stroke-width:4.71955" /><path
   d="m 41.438149,72.603131 a 1.0713395,1.0713395 0 0 0 0.09914,0.811764 c 0.09443,0.169905 2.38339,4.167369 6.267585,8.646228 2.288979,2.642953 4.662917,4.903618 7.046288,6.711209 3.020518,2.293703 6.074065,3.87004 9.080432,4.700687 A 14.059561,14.059561 0 0 0 74.68275,92.137374 14.059561,14.059561 0 0 0 81.337319,83.590258 14.059561,14.059561 0 0 0 79.996964,72.843827 14.06428,14.06428 0 0 0 71.449853,66.189253 C 68.438769,65.358611 65.007654,65.15095 61.241445,65.57571 c -2.973318,0.335089 -6.168457,1.0619 -9.486313,2.156837 a 59.57497,59.57497 0 0 0 -9.816679,4.219285 1.0713395,1.0713395 0 0 0 -0.500272,0.651299 z m 0,0"
   fill="#778320"
   id="path41"
   style="stroke-width:4.71955" /><path
   d="m 56.923014,67.732547 5.403898,9.50991 -8.499931,-2.340901 A 1.0716721,1.0716721 0 0 0 53.26064,76.96872 l 8.495205,2.340902 -9.509909,5.403892 a 1.0715623,1.0715623 0 0 0 1.057189,1.864225 l 11.374128,-6.465793 6.536582,1.802872 -12.879671,7.31531 a 1.0727281,1.0727281 0 0 0 1.061906,1.864222 l 14.743892,-8.377208 5.866403,1.618808 a 1.0716742,1.0716742 0 1 0 0.56636,-2.067166 L 74.706311,80.654695 66.333813,65.910799 a 1.0715603,1.0715603 0 1 0 -1.86422,1.057181 l 7.31532,12.879672 -6.531875,-1.798153 -6.465794,-11.374133 a 1.0715642,1.0715642 0 1 0 -1.86423,1.057181 z"
   fill="#3d6400"
   id="path42"
   style="stroke-width:4.71955" /><path
   d="m 73.12054,41.543726 a 1.0713395,1.0713395 0 0 0 -0.656017,0.495551 c -0.09444,0.165187 -2.41641,4.143774 -4.356154,9.750605 -1.142127,3.303692 -1.911413,6.484674 -2.288988,9.457994 -0.47195,3.756767 -0.316216,7.192606 0.471967,10.213122 a 14.059561,14.059561 0 0 0 6.531855,8.636789 c 3.256501,1.91614 7.069903,2.444731 10.727557,1.491381 a 14.059561,14.059561 0 0 0 8.636786,-6.536587 14.06428,14.06428 0 0 0 1.491387,-10.727555 C 92.890764,61.304511 91.352191,58.227359 89.100959,55.178524 87.326403,52.771551 85.103493,50.364577 82.493572,48.042555 A 59.57497,59.57497 0 0 0 73.932298,41.656994 1.0713395,1.0713395 0 0 0 73.12054,41.543726 Z m 0,0"
   fill="#859324"
   id="path43"
   style="stroke-width:4.71955" /><path
   d="m 85.079898,52.516697 -5.536037,9.439114 -2.218193,-8.532961 a 1.0725861,1.0725861 0 0 0 -2.0766,0.538029 l 2.218193,8.532962 -9.434405,-5.536043 a 1.0725032,1.0725032 0 0 0 -1.085492,1.850067 l 11.289171,6.621539 1.708488,6.560184 -12.780563,-7.499375 a 1.0725033,1.0725033 0 0 0 -1.08549,1.850066 l 14.630613,8.580153 1.533863,5.890009 a 1.0725861,1.0725861 0 1 0 2.076601,-0.53803 l -1.538563,-5.890008 8.580151,-14.630628 a 1.0725088,1.0725088 0 1 0 -1.850079,-1.085497 l -7.49465,12.780561 -1.708488,-6.560184 6.62155,-11.279742 a 1.0725047,1.0725047 0 1 0 -1.85007,-1.085498 z"
   fill="#3d6400"
   id="path44"
   style="stroke-width:4.71955" /><path
   d="m 118.24895,65.486038 a 1.0713395,1.0713395 0 0 0 -0.64659,-0.504992 c -0.18878,-0.04721 -4.62517,-1.260123 -10.54821,-1.684883 a 47.285243,47.285243 0 0 0 -9.722285,0.23598 c -3.756772,0.51915 -7.032135,1.557453 -9.750609,3.100747 a 14.059561,14.059561 0 0 0 -6.654568,8.5424 14.059561,14.059561 0 0 0 1.340353,10.75115 14.059561,14.059561 0 0 0 8.547112,6.654577 14.06428,14.06428 0 0 0 10.751167,-1.340357 c 2.70901,-1.543298 5.2859,-3.822838 7.64567,-6.786721 1.86894,-2.340901 3.61519,-5.111281 5.18679,-8.230909 2.66655,-5.300063 3.90307,-9.736445 3.955,-9.925227 A 1.0713395,1.0713395 0 0 0 118.249,65.486038 Z m 0,0"
   fill="#9fb02b"
   id="path45"
   style="stroke-width:4.71955" /><path
   d="m 110.74013,79.880688 -10.54349,-2.907246 7.66456,-4.356153 a 1.0715626,1.0715626 0 0 0 -1.05718,-1.864226 l -7.669284,4.356153 2.907244,-10.548212 a 1.0716781,1.0716781 0 0 0 -2.067174,-0.566345 l -3.473589,12.615375 -5.894726,3.346167 3.936119,-14.28138 a 1.0716721,1.0716721 0 0 0 -2.067161,-0.566347 l -4.502455,16.343826 -5.29063,3.006358 a 1.0715603,1.0715603 0 1 0 1.05718,1.864224 l 5.290618,-3.006357 16.348538,4.502453 a 1.0716732,1.0716732 0 1 0 0.56636,-2.06716 l -14.276654,-3.931394 5.890002,-3.350883 12.615372,3.478312 a 1.0716732,1.0716732 0 1 0 0.56635,-2.067165 z"
   fill="#3d6400"
   id="path46"
   style="stroke-width:4.71955" /><path
   d="m 64.639496,118.58105 c 0.269006,0.0992 0.566342,0.0943 0.821205,-0.0236 a 59.560811,59.560811 0 0 0 9.21258,-5.40388 47.280524,47.280524 0 0 0 7.357785,-6.37142 c 2.572155,-2.77981 4.436386,-5.66818 5.554917,-8.580137 a 14.059561,14.059561 0 0 0 -0.297337,-10.831362 14.059561,14.059561 0 0 0 -7.8675,-7.442739 14.059561,14.059561 0 0 0 -10.826658,0.297331 14.06428,14.06428 0 0 0 -7.447468,7.867499 c -1.113814,2.91197 -1.651831,6.310049 -1.590489,10.099851 0.04718,2.992207 0.462515,6.239277 1.23181,9.651507 1.31204,5.78618 3.176263,9.99601 3.256493,10.17065 0.117996,0.25956 0.330365,0.4625 0.594662,0.56634 z m 0,0"
   fill="#6c8d15"
   id="path47"
   style="stroke-width:4.71955" /><path
   d="m 61.283896,102.69503 9.9913,-4.459977 -3.152666,8.235617 a 1.0732981,1.0732981 0 0 0 2.005813,0.76458 l 3.14795,-8.235647 4.459981,9.991327 a 1.0731701,1.0731701 0 0 0 1.958602,-0.87786 l -5.333093,-11.945181 2.416421,-6.328931 6.041027,13.521542 a 1.0722126,1.0722126 0 0 0 1.958613,-0.87314 L 77.863696,87.007218 80.034687,81.320153 A 1.0713395,1.0713395 0 1 0 78.033601,80.555584 L 75.862609,86.23793 60.38246,93.156808 a 1.0713395,1.0713395 0 1 0 0.868395,1.958612 l 13.526253,-6.041039 -2.421138,6.324202 -11.945206,5.337827 a 1.0722117,1.0722117 0 1 0 0.873132,1.95862 z"
   fill="#3d6400"
   id="path48"
   style="stroke-width:4.71955" /><path
   d="m 119.73088,103.66725 a 1.0713395,1.0713395 0 0 0 0.0847,-0.81647 59.560811,59.560811 0 0 0 -4.18151,-9.826129 47.280524,47.280524 0 0 0 -5.37088,-8.117633 c -2.43053,-2.90253 -5.05932,-5.12544 -7.80611,-6.602663 a 14.059561,14.059561 0 0 0 -10.774747,-1.090217 14.059561,14.059561 0 0 0 -8.391359,6.843358 14.059561,14.059561 0 0 0 -1.090227,10.779469 14.06428,14.06428 0 0 0 6.84336,8.391365 c 2.751505,1.47722 6.050469,2.44474 9.816679,2.8695 2.973334,0.33981 6.248694,0.34453 9.731724,0.0142 a 59.57497,59.57497 0 0 0 10.50102,-1.92559 1.0713395,1.0713395 0 0 0 0.63714,-0.51915 z m 0,0"
   fill="#678714"
   id="path49"
   style="stroke-width:4.71955" /><path
   d="m 103.54752,104.96511 -3.14322,-10.477395 7.76367,4.176818 a 1.0716309,1.0716309 0 0 0 1.0147,-1.887844 l -7.76365,-4.181509 10.47741,-3.143225 a 1.0713664,1.0713664 0 0 0 -0.61356,-2.053009 L 98.747736,91.160428 92.782207,87.951136 106.9692,83.68937 a 1.0720409,1.0720409 0 0 0 -0.61826,-2.053007 l -16.239994,4.875301 -5.361415,-2.878929 a 1.0716233,1.0716233 0 1 0 -1.014705,1.887824 l 5.361414,2.878934 4.875308,16.239997 a 1.071369,1.071369 0 1 0 2.053015,-0.61356 l -4.261765,-14.186972 5.970233,3.209294 3.761489,12.530418 a 1.071367,1.071367 0 1 0 2.053,-0.61356 z"
   fill="#3d6400"
   id="path50"
   style="stroke-width:4.71955" /><circle
   cx="112.92805"
   cy="38.418869"
   transform="rotate(23.81)"
   fill="#a70000"
   stroke="#000000"
   stroke-width="2.49664"
   id="circle50"
   r="6.8999929" /><circle
   transform="rotate(-53.660001)"
   cx="-15.878638"
   cy="106.82424"
   fill="#bf0000"
   stroke="#000000"
   stroke-width="2.49664"
   id="circle51"
   r="6.8999929" /><circle
   cy="115.01266"
   cx="-24.737249"
   transform="rotate(-53.660001)"
   fill="#e30000"
   stroke="#000000"
   stroke-width="2.49664"
   id="circle52"
   r="6.8999929" /></svg>
