<?xml version="1.0" encoding="UTF-8" standalone="no"?>
<svg
   version="1.1"
   width="165"
   height="165"
   viewBox="0 0 165 165"
   xml:space="preserve"
   id="svg218"
   sodipodi:docname="bush_1.svg"
   inkscape:version="1.1.2 (0a00cf5339, 2022-02-04)"
   inkscape:export-filename="bush_1.png"
   inkscape:export-xdpi="96"
   inkscape:export-ydpi="96"
   xmlns:inkscape="http://www.inkscape.org/namespaces/inkscape"
   xmlns:sodipodi="http://sodipodi.sourceforge.net/DTD/sodipodi-0.dtd"
   xmlns="http://www.w3.org/2000/svg"
   xmlns:svg="http://www.w3.org/2000/svg"><sodipodi:namedview
   id="namedview220"
   pagecolor="#505050"
   bordercolor="#eeeeee"
   borderopacity="1"
   inkscape:showpageshadow="0"
   inkscape:pageopacity="0"
   inkscape:pagecheckerboard="true"
   inkscape:deskcolor="#505050"
   showgrid="false"
   inkscape:zoom="7.9999996"
   inkscape:cx="17.000001"
   inkscape:cy="38.125002"
   inkscape:window-width="2560"
   inkscape:window-height="1372"
   inkscape:window-x="0"
   inkscape:window-y="0"
   inkscape:window-maximized="1"
   inkscape:current-layer="svg218"
   showguides="true"
   inkscape:pageshadow="0" />&#10;<desc
   id="desc181">Created with Fabric.js 5.3.0</desc>&#10;<defs
   id="defs183" />&#10;&#10;<path
   d="m 144.59246,137.14967 c -0.98966,1.08866 -8.26995,2.91277 -9.37229,3.85627 -1.10722,0.93865 -6.31514,9.43498 -7.53505,10.25752 -1.21501,0.81286 -7.04022,-1.20962 -8.34344,-0.54673 -1.3081,0.65801 -6.34944,5.9029 -7.69673,6.43513 -1.35219,0.52257 -7.52035,1.09349 -8.94603,1.39348 -1.43058,0.30482 -7.422391,6.14967 -8.877471,6.33355 -1.45508,0.16934 -10.699968,-3.72562 -12.150138,-3.74982 -1.45509,-0.0193 -6.16327,0.89995 -7.59386,0.69674 -1.44037,-0.19354 -8.60799,-2.18212 -10.01408,-2.52566 -1.40608,-0.33871 -7.58405,0.80317 -8.95094,0.29029 -1.36199,-0.51288 -7.8878,-6.52707 -9.15671,-7.24316 -1.26401,-0.71125 -8.49531,-1.42734 -9.68584,-2.24989 -1.19541,-0.82254 -2.63089,-7.96894 -3.69403,-8.97534 -1.06314,-1.01125 -8.04457,-3.00951 -8.98523,-4.11268 -0.93576,-1.11286 -1.70005,-9.0963 -2.55252,-10.26721 -0.85248,-1.17574 -8.94115,-5.24972 -9.60254,-6.56095 -0.65651,-1.31606 -1.37669,-7.67379 -1.8470198,-9.03824 -0.47033,-1.36926 -3.65975,-8.53988 -3.9978,-9.96722 -0.33805,-1.41767 2.59661,-7.538314 2.45942,-8.999528 -0.13717,-1.456374 -6.80996,-7.030278 -6.80016,-8.496331 0,-1.470891 3.78223,-8.56407 4.00269,-10.015607 0.21557,-1.451536 -2.17527,-10.354299 -1.84702,-11.776804 0.32825,-1.417669 7.3243998,-5.128766 7.8241198,-6.517403 0.49972,-1.37896 -1.7784298,-9.967221 -1.12683,-11.288121 0.6516,-1.31606 9.1763,-5.090057 10.00918,-6.275478 0.83287,-1.185423 2.22427,-8.612454 3.17473,-9.710784 0.94554,-1.093491 8.43161,-1.335416 9.55353,-2.274075 1.12194,-0.933823 2.99346,-11.496174 4.17417,-12.371935 1.18563,-0.870923 10.46971,2.00312 11.75823,1.306383 1.29339,-0.701576 6.17305,-7.8673316 7.51545,-8.3947242 1.34239,-0.53223 7.53016,2.4482597 8.94114,2.1095679 1.42078,-0.3386927 7.61835,-8.12860788 9.06363,-8.25924678 1.44528,-0.1209634 7.10882,5.95614098 8.559,5.97549458 1.450168,0.014512 9.578048,-4.7223344 11.003728,-4.5046038 1.42568,0.2225686 5.36958,6.9141559 6.780571,7.2383326 1.41589,0.3193382 11.00863,-4.3062265 12.36572,-3.8030276 1.3571,0.503199 4.30156,8.7721243 5.56067,9.4688613 1.26401,0.696738 8.66678,-0.78867 9.87201,0.0242 1.2101,0.812862 4.26724,10.484936 5.33037,11.467143 1.06315,0.982206 9.72504,2.375682 10.69998,3.444982 0.97006,1.064461 0.22048,7.509286 1.01904,8.709223 0.80348,1.204775 10.47951,4.064304 11.14092,5.365849 0.65652,1.301546 -2.29285,9.164039 -1.74903,10.499454 0.5438,1.34509 5.68314,8.27376 6.05548,9.696268 0.37724,1.417667 -1.07783,9.468861 -0.92597,10.934914 0.14698,1.466051 3.35599,7.025439 3.3903,8.501169 0.0392,1.47089 -3.79204,8.491492 -3.9978,9.933352 -0.21066,1.437022 2.0234,8.864065 1.65594,10.276895 -0.36254,1.41281 -3.68913,6.36255 -4.22805,7.71732 -0.53892,1.35479 -1.78333,9.08663 -2.46434,10.38334 -0.68589,1.2967 -5.8105,5.05133 -6.5993,6.27548 -0.78387,1.21928 -2.18506,8.23989 -3.1698,9.32853 z"
   fill="#243c0c"
   id="path1"
   style="stroke-width:4.86877" /><path
   d="m 138.19403,93.734205 c -0.58793,2.60793 -9.66132,6.788355 -10.79306,9.207575 -1.12682,2.4144 3.41478,6.78836 1.94009,8.90276 -1.47957,2.10958 -9.17141,4.14657 -11.00862,6.02873 -1.83722,1.87248 -3.23351,9.16403 -5.43817,10.59622 -2.20467,1.43219 -7.50567,-1.27734 -9.8867,-0.15967 -2.38105,1.11769 -7.084331,9.43498 -9.725021,9.914 -2.64071,0.48385 -6.80508,-6.49322 -9.43107,-6.50773 -2.630908,-0.0144 -10.822468,6.75933 -13.345588,6.10614 -2.52801,-0.64835 -2.77297,-8.03184 -5.2912,-9.04792 -2.50842,-1.01124 -11.88069,1.37413 -14.10986,0.0193 -2.23895,-1.34992 -3.37068,-8.14311 -5.2177,-10.08817 -1.84702,-1.94507 -8.23075,-4.67397 -9.79851,-6.77384 -1.56777,-2.09022 2.43983,-8.33183 1.44038,-10.8188 -1.00435,-2.48697 -7.59386,-5.559388 -7.98579,-8.220538 -0.39684,-2.661154 1.45018,-8.578587 1.46977,-11.16716 0.0245,-2.583737 -3.29719,-9.328546 -2.84157,-11.883251 0.45564,-2.559545 6.44743,-3.773996 7.43218,-6.14968 0.98965,-2.380521 -0.0343,-10.451068 1.3375,-12.725143 1.36689,-2.264397 8.29444,-5.128763 10.25414,-6.83674 1.9597,-1.712815 0.29396,-5.980333 2.38594,-7.489932 2.08708,-1.514436 12.19914,0.895114 14.69777,0.06774 2.50842,-0.827378 5.21771,-9.193068 7.82411,-9.676915 2.60151,-0.483846 8.04458,5.307788 10.66078,5.254565 2.611308,-0.04838 6.089778,-6.130325 8.725588,-5.685188 2.64068,0.449976 7.43217,7.635085 9.906281,8.622131 2.46924,0.991883 8.95585,1.509599 11.06253,3.096614 2.10668,1.577337 2.30267,7.039954 4.21336,8.844698 1.90091,1.799906 12.27263,2.274075 13.65422,4.572343 1.38649,2.293428 -1.3473,10.025283 -0.24005,12.396128 1.10723,2.370843 7.56446,5.564225 7.98578,8.220539 0.42625,2.656312 -6.58951,9.120491 -6.53071,11.791321 0.0539,2.665989 7.2313,6.981894 6.6483,9.589821 z"
   fill="#3b5b1f"
   id="path2"
   style="stroke-width:4.86877" /><path
   d="m 103.88452,101.36929 c -0.92595,0.97736 -6.418021,0.59997 -7.539951,1.34994 -1.11702,0.74511 0.45564,3.29014 -0.71039,3.82237 -1.16112,0.53223 -5.19811,0.0103 -6.46212,0.38707 -1.25911,0.36773 -3.9047,2.85954 -5.2177,2.9418 -1.313008,0.0725 -2.518218,-2.05635 -3.826328,-2.11926 -1.3081,-0.0676 -5.9134,2.3902 -7.1823,1.94506 -1.26891,-0.44029 -0.81818,-4.5675 -1.94502,-5.21586 -1.12682,-0.6435 -7.06961,0.23225 -7.96618,-0.67737 -0.89656,-0.91931 1.46978,-3.81755 0.6222,-4.872329 -0.84757,-1.054785 -5.8546,-2.680507 -6.49641,-3.783678 -0.6467,-1.103167 0.19597,-4.194941 -0.098,-5.496485 -0.29395,-1.301546 -1.70004,-4.402996 -1.88131,-5.680349 -0.18617,-1.272515 3.19921,-2.627283 3.40008,-3.948181 0.19597,-1.325737 -1.72454,-4.151397 -1.18562,-5.394881 0.53402,-1.243484 2.05769,-3.880442 2.71418,-4.973934 0.66141,-1.098329 1.54328,-4.761042 2.36635,-5.752926 0.82308,-0.991883 3.20412,0.164509 4.21336,-0.609644 1.01414,-0.774156 3.12083,-4.407836 4.26725,-5.08522 1.15133,-0.677383 5.00705,-0.96769 6.28575,-1.185422 1.27381,-0.217731 0.80837,-1.886998 2.07238,-2.061182 1.26401,-0.169347 5.692938,3.541749 6.971648,3.836897 1.27871,0.295145 4.6151,-2.932106 5.85951,-2.501483 1.24932,0.435461 2.07239,4.267519 3.21391,4.86265 1.14643,0.59513 3.77732,-1.567661 4.820871,-0.745123 1.04844,0.822537 1.69514,5.269079 2.52313,6.294832 0.83287,1.025754 2.87584,3.464337 3.35108,4.669112 0.47522,1.204776 -0.46544,3.096612 -0.0832,4.325581 0.38704,1.228969 5.2177,4.340096 5.2079,5.67551 -0.0104,1.340253 -3.13062,4.127204 -3.21881,5.414234 -0.0881,1.287029 1.70005,4.14172 1.18562,5.390042 -0.51441,1.25316 -5.58516,2.341812 -6.22204,3.517558 -0.6369,1.175745 1.88619,4.693301 0.96024,5.670671 z"
   fill="#80a460"
   id="path3"
   style="stroke-width:4.86877" /></svg>
