<?xml version="1.0" encoding="UTF-8" standalone="no"?>
<svg
   width="144.00378"
   height="144.00378"
   viewBox="0 0 38.101001 38.101001"
   version="1.1"
   id="svg14"
   sodipodi:docname="map-crate-07.svg"
   xmlns:inkscape="http://www.inkscape.org/namespaces/inkscape"
   xmlns:sodipodi="http://sodipodi.sourceforge.net/DTD/sodipodi-0.dtd"
   xmlns="http://www.w3.org/2000/svg"
   xmlns:svg="http://www.w3.org/2000/svg">
  <sodipodi:namedview
     id="namedview14"
     pagecolor="#ffffff"
     bordercolor="#000000"
     borderopacity="0.25"
     inkscape:showpageshadow="2"
     inkscape:pageopacity="0.0"
     inkscape:pagecheckerboard="0"
     inkscape:deskcolor="#d1d1d1" />
  <defs
     id="defs5">
    <clipPath
       id="b">
      <path
         d="m -45.534,209.35 29.33,16.933 v 33.867 l -29.33,16.933 -29.33,-16.933 v -33.867 z"
         fill-opacity="0.506"
         stroke="#ffffff"
         stroke-width="2.117"
         stroke-opacity="0.502"
         id="path1" />
    </clipPath>
    <clipPath
       id="a">
      <path
         fill="#4d2600"
         stroke-width="0.529"
         d="M 0,258.9 H 38.1 V 297 H 0 Z"
         id="path2" />
    </clipPath>
    <clipPath
       id="d">
      <path
         d="m -4.763,273.187 v -5.82 h 28.575 v 5.82 z"
         fill="#4d2600"
         stroke-width="3.532"
         id="path3" />
    </clipPath>
    <clipPath
       id="c">
      <path
         d="m 43.392,296.47 h -12.7 v -38.1 h 12.7 z"
         fill="#4d2600"
         stroke-width="6.024"
         id="path4" />
    </clipPath>
    <clipPath
       id="e">
      <path
         d="m -1.587,297 h -5.821 v -38.1 h 5.82 z"
         fill="#4d2600"
         stroke-width="4.078"
         id="path5" />
    </clipPath>
  </defs>
  <path
     clip-path="url(#a)"
     fill="#4d2600"
     stroke="#191919"
     stroke-width="3.969"
     d="M 0,258.9 H 38.1 V 297 H 0 Z"
     transform="translate(0,-258.9)"
     id="path6" />
  <path
     clip-path="url(#b)"
     d="m -45.534,209.35 29.33,16.933 v 33.867 l -29.33,16.933 -29.33,-16.933 v -33.867 z"
     transform="matrix(-0.22166786,-0.12798,0.12798,-0.22166786,-25.937795,70.743989)"
     fill-opacity="0.485"
     stroke="#ffffff"
     stroke-width="4.011"
     id="path7" />
  <path
     d="m 15.283,17.534 a 5.123,5.123 0 0 0 -5.123,5.123 5.123,5.123 0 0 0 5.123,5.123 5.123,5.123 0 0 0 5.123,-5.123 5.123,5.123 0 0 0 -5.123,-5.123 z M 17.53,18.8 a 4.449,4.449 0 0 1 2.197,3.955 h -3.323 a 1.221,1.221 0 0 0 -0.585,-0.98 z m -4.593,0.055 1.67,2.891 a 1.21,1.21 0 0 0 -0.475,0.462 1.21,1.21 0 0 0 -0.161,0.547 h -3.132 a 4.424,4.424 0 0 1 0.582,-2.34 4.434,4.434 0 0 1 1.517,-1.56 z m 2.253,3.16 a 0.8,0.8 0 0 1 0.398,0.11 0.799,0.799 0 0 1 0.294,1.094 0.798,0.798 0 0 1 -1.095,0.293 0.799,0.799 0 0 1 -0.294,-1.095 0.798,0.798 0 0 1 0.697,-0.401 z m 0.631,1.845 1.555,2.696 a 4.477,4.477 0 0 1 -2.22,0.539 4.4,4.4 0 0 1 -2.076,-0.583 l 1.523,-2.624 c 0.393,0.215 0.857,0.19 1.218,-0.028 z"
     fill="#ffffff"
     id="path8" />
  <path
     transform="rotate(90,163.581,132.89)"
     d="m 43.392,296.47 h -12.7 v -38.1 h 12.7 z"
     clip-path="url(#c)"
     fill="#d19200"
     stroke="#191919"
     stroke-width="3.969"
     id="path9"
     style="fill:#808080" />
  <path
     transform="matrix(-1.33333,0,0,-1,31.75,305.467)"
     clip-path="url(#d)"
     d="m -4.763,273.187 v -5.82 h 28.575 v 5.82 z"
     fill="#d19200"
     stroke="#191919"
     stroke-width="3.437"
     id="path10" />
  <path
     transform="rotate(90,128.656,168.344)"
     d="m -1.587,297 h -5.821 v -38.1 h 5.82 z"
     clip-path="url(#e)"
     fill="#763800"
     stroke="#191919"
     stroke-width="3.969"
     id="path11" />
  <path
     clip-path="url(#e)"
     d="m -1.587,297 h -5.821 v -38.1 h 5.82 z"
     transform="translate(7.408,-258.9)"
     fill="#763800"
     stroke="#191919"
     stroke-width="3.969"
     id="path12" />
  <path
     clip-path="url(#c)"
     d="m 43.392,296.47 h -12.7 v -38.1 h 12.7 z"
     transform="translate(-5.292,-258.37)"
     fill="#763800"
     stroke="#191919"
     stroke-width="3.969"
     id="path13" />
  <path
     d="M 37.042,16.002 V 10.88 l -9.8,-9.822 h -5.123 z"
     fill="#4d2600"
     stroke="#191919"
     stroke-width="1.968"
     id="path14" />
</svg>
